<?xml version="1.0" encoding="utf-8"?>
<!-- Generator: Adobe Illustrator 17.1.0, SVG Export Plug-In . SVG Version: 6.00 Build 0)  -->
<!DOCTYPE svg PUBLIC "-//W3C//DTD SVG 1.1//EN" "http://www.w3.org/Graphics/SVG/1.1/DTD/svg11.dtd">
<svg version="1.1" id="Layer_1" xmlns="http://www.w3.org/2000/svg" xmlns:xlink="http://www.w3.org/1999/xlink" x="0px" y="0px"
	 width="1828.5px" height="238.9px" viewBox="0 0 1828.5 238.9" enable-background="new 0 0 1828.5 238.9" xml:space="preserve">
<g>
	<path fill="#DCEFEF" d="M207.7,34.8c9.8-11.5,23.2-14.1,33.9-7c7.2,4.8,9.9,11.9,10,20.1c0.2,12.3-0.1,24.7,0.2,37
		c0.1,3.5-1.6,3.6-4.2,3.6c-2.7,0-4.2-0.1-4.2-3.6c0.1-12.6,0.2-25.3-0.4-37.9c-0.5-9.5-5.9-14.6-14.2-14.9
		c-9.1-0.4-15.6,4.5-17.3,13.7c-1.8,9.7-0.5,19.6-0.8,29.4c-0.1,2.8-0.3,5.7,0.1,8.5c0.5,4.1-1.2,5.1-5,4.9c-3-0.1-3.6-1.2-3.6-3.9
		c0.1-11,0.1-22,0-33c0-3-0.1-6.1-0.8-8.9c-2-7.5-7.5-11.2-15.2-10.8c-8.4,0.5-15.1,6.6-16.3,15.5c-1.3,10.1-0.3,20.3-0.6,30.4
		c0,2-0.2,4,0,6c0.4,3.3-0.6,4.6-4.3,4.6c-3.8,0-4.3-1.4-4.2-4.7c0.1-17.7,0-35.3,0.1-53c0-2.5-1.2-5.5,3.7-5.7
		c4.9-0.1,5,2.3,4.7,5.7c-0.1,0.6,0.2,1.2,0.3,2C185.8,20.2,197.4,20.8,207.7,34.8z"/>
	<path fill="#DCEFEF" d="M65.7,44.4c0,13.2-0.2,26.3,0.1,39.5c0.1,3.9-1.1,4.7-4.7,4.7c-3.5,0-4.4-1-4.4-4.4c0.2-11,0-22,0.2-33
		c0.1-3.2-0.7-4.2-4.1-4.2c-13.3,0.2-26.6,0.2-40,0c-3.5-0.1-4.1,1.2-4,4.3C9,62.3,8.7,73.5,9,84.7c0.1,3.9-1.8,3.7-4.5,3.8
		c-2.8,0-4.6-0.1-4.5-3.9c0.2-27,0.2-54,0-80.9C0,0,1.7,0,4.2,0.1C6.6,0.3,9.1-0.7,9,3.6C8.7,14.1,9,24.6,8.8,35
		c-0.1,3,0.7,3.9,3.8,3.9c13.5-0.2,27-0.2,40.5,0c3.2,0,3.8-0.9,3.8-3.9c-0.2-10.3,0.1-20.7-0.2-31c-0.1-4.1,1.8-4,4.7-4
		c2.9,0,4.4,0.1,4.4,3.9C65.6,17.4,65.7,30.9,65.7,44.4z"/>
	<path fill="#DCEFEF" d="M1528.7,34.9c5.2-7.2,11.3-10.3,18.7-11c15.5-1.4,26.6,8.4,27.1,24.4c0.4,12.2,0,24.3,0.2,36.5
		c0.1,3.6-1.8,3.5-4.3,3.5c-2.6,0-4.4,0-4.4-3.5c0.2-11.3,0.1-22.7,0.1-34c-0.1-11.7-5.2-18.1-14.8-18.9c-11.5-1-19.4,4.8-21.8,15.9
		c-0.6,2.8-0.7,5.6-0.7,8.4c0,9.2-0.1,18.3,0,27.5c0,3-0.1,4.9-4.1,4.8c-3.6-0.1-4.4-1.2-4.3-4.6c0.1-26.5,0.1-53,0-79.5
		c0-3.5,1-4.4,4.4-4.5c3.5,0,4,1.2,4,4.3C1528.6,14,1528.7,23.8,1528.7,34.9z"/>
	<path fill="#DCEFEF" d="M796.6,78.1c6.6-17,12.7-32.8,18.8-48.6c0.7-1.7,0.6-4.2,3.4-4.2c2,0,4.6-0.6,5.8,0.5
		c1.6,1.4-0.4,3.6-1,5.4c-8.5,21.8-17,43.6-25.9,65.3c-3.7,9-10.2,15.5-20.5,17c-1.8,0.3-4.1,0.8-3.7-2.2c0.3-2-2-5,2.6-5.5
		c7.3-0.9,14.7-8.9,15.8-16.1c0.3-1.8-0.6-3.3-1.2-4.7c-8.1-18.2-16.2-36.4-24.3-54.6c-0.6-1.4-3-3.8-0.8-4.5
		c2.5-0.7,6.4-2.3,8.2,1.8c3.8,8.5,7.6,16.9,11.5,25.4C788.9,61,792.5,69,796.6,78.1z"/>
	<path fill="#DCEFEF" d="M918.7,35c7-9.7,15.8-12.4,25.8-10.8c12.7,2,19.9,11,20.2,24.6c0.2,11.8-0.1,23.6,0.1,35.5
		c0.1,3.3-0.9,4.3-4.2,4.2c-3-0.1-4.5-0.4-4.4-4c0.2-11.8,0.3-23.7-0.1-35.5c-0.3-9.6-4.6-14.9-12.7-16.8c-8.7-2-18.3,2.2-22.1,9.8
		c-1.9,3.9-2.7,8.2-2.7,12.6c0,10-0.2,20,0.1,30c0.1,3.8-1.7,3.8-4.4,3.9c-3,0.1-3.9-0.8-3.9-3.9c0.2-18.5,0.2-37,0-55.5
		c0-3.2,1-3.9,4-3.8c2.9,0.1,4.9,0.3,4.3,4C918.5,30.7,918.7,32.2,918.7,35z"/>
	<path fill="#DCEFEF" d="M1326.9,89.8c-9.2-0.3-17.3-2.9-22.6-11.2c-1.4-2.2-1.8-3.9,1.2-4.8c1.9-0.6,3.3-3.8,5.8,0.2
		c4.9,8.2,18.3,10.5,26.2,5.2c5.7-3.8,5.2-11.6-1.1-15.1c-5.6-3.1-12-3.9-17.9-6c-10-3.4-14.7-9.7-13.6-18.7c0.8-7,6.8-12.9,15-14.7
		c10.7-2.5,21.7,1.1,26.7,8.8c1,1.5,2.5,3.3-0.4,4.3c-1.9,0.6-3.2,4.3-6,0.6c-5.1-6.7-13.5-8.4-21-5c-3.5,1.6-5.7,4-5.8,7.9
		c-0.2,4,1.9,6.6,5.3,8.3c5.7,2.8,12,3.8,17.9,5.9c10.1,3.5,14.8,10.4,13.1,19.5c-1.4,7.8-9,13.6-19.2,14.7
		C1329.3,89.9,1328.1,89.8,1326.9,89.8z"/>
	<path fill="#DCEFEF" d="M1086.4,89.9c-7.8-0.3-15.9-2.9-21.2-11.1c-1.1-1.7-2.3-3.6,0.7-4.7c2-0.8,3.7-3.9,6.3,0.2
		c5.1,7.8,16.5,10,25,5.7c3.4-1.7,4.9-4.4,5-8c0.1-3.5-1.7-6-4.7-7.6c-5.3-3-11.3-3.7-17-5.7c-4.6-1.6-9.1-3.4-12.1-7.5
		c-4.6-6.1-3.6-15.2,2.1-21c9.6-9.8,29.5-7.7,37,3.8c1.1,1.7,2.1,3.3-0.7,4c-1.9,0.5-3.1,4.5-5.9,0.7c-4.8-6.7-13.5-8.6-20.9-5.2
		c-3.6,1.6-6,4.1-6.1,8.3c0,4,2.3,6.4,5.6,8.1c5.9,2.9,12.4,3.8,18.4,6c7.3,2.7,12.3,7.2,12.7,15.5c0.3,6.6-3.7,13.1-10.6,16.1
		C1096.1,89.1,1092,90,1086.4,89.9z"/>
	<path fill="#DCEFEF" d="M1806.5,90c-10.2-0.5-18.2-3.2-23.4-11.2c-1.1-1.7-2.4-3.7,0.6-4.8c2-0.7,3.6-4,6.3,0
		c5.2,7.9,16.4,10.1,24.9,5.8c3.3-1.7,5-4.3,5.1-7.9c0.1-3.5-1.7-5.9-4.7-7.7c-5-2.9-10.7-3.5-16-5.5c-2.5-0.9-5-1.8-7.3-3
		c-10.3-5.5-11.6-19-2.7-26.7c10-8.6,28-6.4,35.6,4.4c0.8,1.2,3.5,3,0.2,4.1c-2,0.7-3.5,5.3-6.6,0.7c-4.6-6.7-14.1-8.3-21.5-4.5
		c-3.2,1.7-5.2,4.1-5.3,7.8c-0.1,3.8,2,6.2,5.1,7.9c5.8,3,12.3,4,18.4,6.1c8.9,3.2,13.5,8.7,13.3,16.6c-0.2,7.9-6,14.5-14.8,16.6
		C1811,89.5,1808.2,90.3,1806.5,90z"/>
	<path fill="#DCEFEF" d="M1387.6,88.9c-14,0-19.3-5.2-19.5-18.4c-0.1-10.7-0.3-21.3,0.1-32c0.1-4.4-1.3-5.6-5.3-5c-1,0.2-2,0-3,0
		c-4.9,0-6.2-1.9-5-6.6c0.6-2.3,2.2-1.6,3.6-1.6c9.6-0.4,9.5-0.4,9.7-10.1c0-1.9-1.3-4.2,1.7-5.6c6.2-2.8,6.7-2.6,6.7,4.2
		c0,11.4,0,11.3,11.7,11.5c2.3,0,6.3-2.4,6.5,3.2c0.1,3.8-0.8,5.3-4.9,5c-4.2-0.2-9.9-1.9-12.5,0.7c-2.6,2.6-0.7,8.2-0.8,12.5
		c-0.1,8-0.1,16,0,24c0.1,8.3,2.4,10.6,10.8,10.5c1.2,0,2.3-0.2,3.5-0.2c2-0.1,4.1-0.7,3.9,2.7c-0.2,2.5,0.4,5.2-3.6,4.9
		C1389.7,88.7,1388.2,88.9,1387.6,88.9z"/>
	<path fill="#DCEFEF" d="M618.6,79.7c6.9-17.1,13.5-33.2,20-49.3c0.7-1.8,0.9-4.3,3-4.8c2.2-0.5,5-1.1,6.7,0.4
		c1.5,1.3-0.6,3.3-1.2,4.9c-7.3,18-14.7,35.9-21.9,54c-1.1,2.8-2.6,4-5.5,3.6c-2.7-0.4-5.8,1.1-7.5-3C604.3,65.6,596.1,45.8,588,26
		c8.3-1.5,8.2-1.5,11.3,6.2C605.6,47.8,611.9,63.2,618.6,79.7z"/>
	<path fill="#DCEFEF" d="M387.8,8c0,4.6,0.3,8.8-0.1,12.9c-0.4,4,1.2,4.8,4.8,4.5c3.5-0.3,7,0.1,10.5-0.1c3.7-0.3,2.9,2.2,2.9,4.2
		c0.1,2.2,0.5,4.4-3.1,4.1c-3.8-0.3-7.7,0.1-11.5-0.1c-2.9-0.2-3.6,0.8-3.6,3.6c0.1,11.3,0,22.7,0.1,34c0,7.9,2.3,10.1,10.1,10.2
		c1.5,0,3-0.1,4.5-0.2c1.9-0.1,3.9-0.5,3.5,2.5c-0.3,2,1.3,5-2.7,5.1c-3.8,0.1-7.7,0.5-11.5-0.2c-7.6-1.5-11.8-6.3-12-14.3
		c-0.2-12.2-0.2-24.3-0.1-36.5c0-3.2-0.8-4.6-4.1-4.2c-1.5,0.2-3,0-4.5,0.1c-3,0.2-5.2,0.3-5.1-4.2c0.1-4.6,2.5-4.1,5.4-4.1
		c8.3,0,8.3,0,8.3-7.9C379.6,10,379.6,10,387.8,8z"/>
	<path fill="#DCEFEF" d="M1680.9,8.1c0,5.1,0.1,9.8,0,14.4c-0.1,2.2,0.7,3,2.9,2.9c4.2-0.1,8.3,0.1,12.5-0.1c3.2-0.2,3,1.8,2.8,3.9
		c-0.1,1.9,1.1,4.6-2.7,4.5c-3.5-0.2-7,0.2-10.5-0.1c-3.7-0.3-5.2,0.7-5,4.8c0.3,9.8,0.1,19.7,0.1,29.5c0,12,2.1,14.1,14,13.3
		c3.9-0.3,4.3,1.2,4.2,4.4c-0.1,2.4-1,3.2-3.3,3.2c-2.3,0-4.7,0.2-7,0.1c-10.5-0.4-15.9-5.7-16.1-16.3c-0.2-11.7-0.2-23.3,0-35
		c0.1-3.3-0.9-4.5-4.1-4c-1.5,0.2-3-0.1-4.5,0.1c-3,0.3-4.8,0-4.9-4c-0.1-4.3,1.9-4.3,5.1-4.3c8.3,0.1,8.3,0,8.3-8.2
		C1672.8,10,1672.8,10,1680.9,8.1z"/>
	<path fill="#DCEFEF" d="M1376.3,8.1c0,5.1,0.1,9.8,0,14.4c-0.1,2.2,0.7,3,2.9,2.9c4.2-0.1,8.3,0.1,12.5-0.1c3.2-0.2,3,1.8,2.8,3.9
		c-0.1,1.9,1.1,4.6-2.7,4.5c-3.5-0.2-7,0.2-10.5-0.1c-3.7-0.3-5.2,0.7-5,4.8c0.3,9.8,0.1,19.7,0.1,29.5c0,12,2.1,14.1,14,13.3
		c3.9-0.3,4.3,1.2,4.2,4.4c-0.1,2.4-1,3.2-3.3,3.2c-2.3,0-4.7,0.2-7,0.1c-10.5-0.4-15.9-5.7-16.1-16.3c-0.2-11.7-0.2-23.3,0-35
		c0.1-3.3-0.9-4.5-4.1-4c-1.5,0.2-3-0.1-4.5,0.1c-3,0.3-4.8,0-4.9-4c-0.1-4.3,1.9-4.3,5.1-4.3c8.3,0.1,8.3,0,8.3-8.2
		C1368.2,10,1368.2,10,1376.3,8.1z"/>
	<path fill="#DCEFEF" d="M738.7,35.3c4.5-6.7,9.6-10.3,16.6-10.6c1.8-0.1,3.6-0.3,3.2,2.3c-0.3,2,1.4,4.7-2.3,5.6
		c-14.1,3.7-17.5,8.2-17.6,22.7c0,9.8-0.2,19.7,0.1,29.5c0.1,3.5-1.6,3.6-4.2,3.6c-2.6,0-4.3,0-4.2-3.6c0.2-18.7,0.2-37.3,0-56
		c0-3.6,1.7-3.5,4.3-3.5c2.7-0.1,4.6,0.2,4.1,3.7C738.5,30.6,738.7,32.3,738.7,35.3z"/>
	<path fill="#DCEFEF" d="M1047.6,12.2c0-2.5,0.4-5-0.1-7.5c-0.8-4.4,1.4-4.8,4.9-4.7c2.9,0,3.7,0.9,3.5,3.7
		c-0.4,6.1-0.7,12.3-0.8,18.4c0,2.7-1.1,3.3-3.6,3.3c-2.7,0-2.9-1.3-3-3.3c-0.1-3.3-0.5-6.6-0.7-9.9
		C1047.8,12.2,1047.7,12.2,1047.6,12.2z"/>
	<path fill="#DCEFEF" d="M1496.2,32.8c-11.6-11.2-33.5-13.5-47.7,4.1c0-3.2-0.2-5.2,0-7.1c0.4-3.4-0.8-4.6-4.3-4.6
		c-3.7,0-4.3,1.4-4.3,4.7c0.1,26.3,0.1,52.6,0,79c0,3.5,0.5,5,4.5,4.9c3.8,0,4.4-1.5,4.3-4.7c-0.2-5.8,0.1-11.7,0.1-17.5
		c0-4.5,0-9.1,0-14.3c16,15.7,35.1,16.5,48.4,2.7C1509.8,66.9,1509.3,45.5,1496.2,32.8z M1472.8,81.9c-13.9-0.2-24.4-11.2-24.2-25.5
		c0.2-13.8,11-24.5,24.8-24.4c13.9,0,24.6,11,24.5,25.3C1497.7,71.3,1486.8,82.1,1472.8,81.9z"/>
	<path fill="#DCEFEF" d="M1212.4,33.5c-13.7-13.8-32.2-12.7-48.5,3.3c0-11.5-0.2-22.1,0.1-32.7c0.1-3.5-1.2-4-4.3-4.1
		c-3.3-0.1-4.2,0.9-4.2,4.2c0.1,26.6,0.1,53.3,0,79.9c0,2.8,0.1,4.5,3.8,4.4c3.3-0.1,5-0.6,4.5-4.3c-0.3-2.2-0.1-4.4-0.1-7.3
		c16.2,16,34.9,17.1,48.5,3.3C1225.1,67.5,1225.1,46.3,1212.4,33.5z M1189,81.9c-13.8,0.1-25-11.1-25.1-25c0-13.9,11.1-25,25-25
		c13.6,0,24.7,11.1,24.8,24.7C1213.9,70.4,1202.8,81.8,1189,81.9z"/>
	<path fill="#DCEFEF" d="M276.3,61c16,0.2,32,0,48,0.1c2.3,0,3.6-0.2,3.6-3.1c0.1-25.3-22.4-41.7-46.4-30.7
		c-15.1,7-21.5,24-15.9,41.2c4.3,13.1,14.3,19.8,27.6,21.1c12.9,1.3,23.9-2.7,31.5-14c-3.9-3.2-6.5-4.7-11.3,0.1
		c-12.1,12.3-35.1,5.9-40.4-10.5C272,61.9,272.7,60.9,276.3,61z M272.9,49.5c2.6-10.4,12.4-17.6,23.8-17.6c10.6,0,19.7,7.3,22,17.5
		c0.5,2.3,0.4,3.7-2.7,3.6c-6.8-0.2-13.6-0.1-20.5-0.1c-6.7,0-13.3-0.2-20,0.1C272.6,53.1,272.3,51.9,272.9,49.5z"/>
	<path fill="#DCEFEF" d="M673.1,26.2C660.7,31.2,653,43,653,56.8c0,14.2,7.8,26,20.4,30.9c12.7,4.9,28.4,1.7,37-7.4
		c4.4-4.7,4.2-4.8-1.3-7.9c-3.1-1.7-3.4,0.9-4.5,2c-6.7,6.8-14.7,8.7-23.8,6.9c-9.2-1.9-15.5-7.2-18.4-16.3c-1-3-0.5-4.1,3-4
		c8,0.2,16,0.1,24,0.1s16-0.1,24,0.1c2.9,0.1,3.6-0.9,3.7-3.6C717.9,33.6,695,17.3,673.1,26.2z M664.8,53c-3.7,0-3-1.7-2.4-4
		c2.9-10.4,12.5-17.3,24-17.1c10.6,0.2,19,7.3,21.4,18c0.2,0.8,0.3,1.6,0.6,3C693.7,52.9,679.3,52.8,664.8,53z"/>
	<path fill="#DCEFEF" d="M580.1,61c2.2,0,4.3,0.3,4.3-3c-0.1-12.5-4.4-23-15.3-29.6c-11.2-6.8-23.1-6.1-34,0.6
		c-11.2,6.9-15.4,17.8-14.6,30.7c0.8,13.1,8.6,23.9,20.5,28.1c13.3,4.8,28.8,1.4,37.2-8.2c1.1-1.3,4.5-2.8,1.6-4.9
		c-2.1-1.5-4.2-5-8-0.6c-6.9,8.3-16.4,9.4-26.4,6.5c-9.5-2.8-15-9.6-16.5-19.6c1.9,0,3.6,0,5.2,0C549.5,60.9,564.8,60.9,580.1,61z
		 M551.6,31.9c11.5-0.5,21.2,6.7,23.5,17.5c0.4,1.7,1.5,3.6-1.9,3.6c-14.7-0.1-29.3,0-44,0C530.7,40.7,539.6,32.4,551.6,31.9z"/>
	<path fill="#DCEFEF" d="M989,61c8,0.2,16,0.1,24,0.1c8.2,0,16.3-0.1,24.5,0.1c2.9,0.1,3.7-1,3.7-3.7c0-10.6-3.4-19.6-11.6-26.5
		c-9.9-8.3-21.3-9.1-32.9-4.4c-12.7,5.1-18.9,15.4-19.4,28.8c-0.5,12.7,4.1,23.3,15.5,29.8c14.6,8.4,33.6,5.3,43.3-6.4
		c1.7-2.1,2.5-3.4-0.6-5.3c-3.1-1.8-4.6-1.4-7.2,1.2c-6.8,7.2-15.4,8.6-24.8,6.2c-8.8-2.2-14.5-7.7-17-16.5
		C985.6,61.7,986.2,60.9,989,61z M986.3,49.8c2.1-10.1,11.9-17.8,23-17.9c10.9-0.2,19.9,6.7,22.5,16.9c0.3,1.1,0.5,2.3,0.8,4.1
		c-15,0-29.7,0-44.3,0C985.5,53,986,51.6,986.3,49.8z"/>
	<path fill="#DCEFEF" d="M1244.9,60.9c7.8,0.3,15.7,0.1,23.5,0.1c8,0,16-0.1,24,0c2.3,0,3.7-0.1,3.8-3c0.2-12-4-22-13.9-28.9
		c-9.8-6.8-20.7-7-31.4-2.3c-14.1,6.3-20.5,19.7-18.3,36.4c1.7,12,11.3,22.5,23.2,25.4c14.2,3.4,28.9-1,35.7-10.6
		c0.6-0.8,2.1-1.9,0.8-3c-1.6-1.4-3.5-2.6-5.5-3.3c-1.7-0.6-2.2,1.6-3.1,2.5c-6.4,6.7-14.4,8.7-23.3,7c-9.2-1.7-15.7-6.8-18.8-15.9
		C1240.7,62.4,1240.8,60.8,1244.9,60.9z M1241.4,49.8c2.2-10.1,11.9-17.7,23-17.9c11.1-0.2,20.2,6.8,22.5,17.4
		c0.2,1,0.4,1.9,0.8,3.6c-15,0-29.5-0.1-43.9,0C1241.2,53,1240.9,52.2,1241.4,49.8z"/>
	<path fill="#DCEFEF" d="M863.9,23.9c-18.7-0.3-33.6,14.1-33.8,32.6c-0.2,18.3,14.1,33.1,32.5,33.4c18.7,0.3,33.5-13.9,33.8-32.6
		C896.6,39,882.2,24.1,863.9,23.9z M863.4,81.9c-14,0-24.8-10.8-24.8-25c0-14.2,10.7-25,24.8-25c13.7,0,24.5,10.8,24.5,24.7
		C888,70.9,877.3,81.9,863.4,81.9z"/>
	<path fill="#DCEFEF" d="M1620.5,23.9c-18.7-0.1-33.5,14.5-33.5,33c0,18.3,14.5,32.9,32.9,33c18.7,0.2,33.2-14.3,33.3-33
		C1653.3,38.5,1638.9,24,1620.5,23.9z M1620.3,81.9c-14,0-24.8-10.8-24.8-25c0-14.1,10.7-25,24.8-25c13.7,0,24.5,10.8,24.6,24.7
		C1644.9,70.8,1634.3,81.8,1620.3,81.9z"/>
	<path fill="#DCEFEF" d="M445.2,23.9c-18.5,0.1-32.9,14.5-32.9,32.9c0,18.7,14.5,33.1,33.2,33.1c18.5,0,33.3-14.9,33.1-33.4
		C478.4,38.3,463.6,23.8,445.2,23.9z M445,81.9c-13.9-0.2-24.4-11.2-24.3-25.5c0.2-14,11.2-24.7,25.3-24.4
		c13.6,0.2,24.2,11.3,24,25.3C469.9,71.3,459,82.1,445,81.9z"/>
	<path fill="#DCEFEF" d="M1738.8,23.9c-18.7,0-33.3,14.6-33.2,33.1c0.1,18.6,14.7,33,33.5,32.9c18.4-0.1,32.7-14.7,32.7-33.1
		C1771.8,38.4,1757.2,23.9,1738.8,23.9z M1738.6,81.9c-13.8-0.1-24.8-11.3-24.7-25.3c0.1-13.9,11.3-24.8,25.3-24.7
		c13.5,0.1,24.6,11.4,24.5,25C1763.6,70.8,1752.4,82,1738.6,81.9z"/>
	<path fill="#DCEFEF" d="M114.1,23.9c-18.7-0.1-33.4,14.4-33.4,33c0,18.6,14.6,33.1,33.3,33c18.4-0.1,32.8-14.5,32.8-33
		C146.9,38.5,132.5,24,114.1,23.9z M113.7,81.9c-13.8,0-24.9-11.3-24.8-25.2c0.1-13.9,11.2-24.9,25.2-24.8
		c13.5,0.1,24.7,11.3,24.7,24.9C138.7,70.7,127.5,81.9,113.7,81.9z"/>
</g>
<text transform="matrix(1 0 0 1 272.11 192.876)" fill="#E7E7E7" font-family="'Merriweather-Light'" font-size="41">Showcase your work, license amazing photos, and stay inspired</text>
<text transform="matrix(1 0 0 1 447.7861 54.879)" display="none" font-family="'Nauman-Regular'" font-size="30">Home to everyone’s best photos</text>
</svg>
