<svg xmlns="http://www.w3.org/2000/svg" viewBox="0 0 60 60"><path d="M1 51c-.26 0-.52-.11-.71-.29C.11 50.52 0 50.26 0 50c0-.26.11-.52.29-.71.37-.37 1.05-.37 1.42 0 .18.19.29.45.29.71 0 .26-.11.52-.29.71-.19.18-.45.29-.71.29zm-1-5c0-.55.45-1 1-1s1 .45 1 1-.45 1-1 1-1-.45-1-1zm0-4c0-.55.45-1 1-1s1 .45 1 1-.45 1-1 1-1-.45-1-1zm0-4c0-.55.45-1 1-1s1 .45 1 1-.45 1-1 1-1-.45-1-1zm0-4c0-.55.45-1 1-1s1 .45 1 1-.45 1-1 1-1-.45-1-1zm0-4c0-.55.45-1 1-1s1 .45 1 1-.45 1-1 1-1-.45-1-1zm0-4c0-.55.45-1 1-1s1 .45 1 1-.45 1-1 1-1-.45-1-1zm0-4c0-.55.45-1 1-1s1 .45 1 1-.45 1-1 1-1-.45-1-1zm0-4c0-.55.45-1 1-1s1 .45 1 1-.45 1-1 1-1-.45-1-1zm0-4c0-.55.45-1 1-1s1 .45 1 1-.45 1-1 1-1-.45-1-1zm1-3c-.26 0-.52-.11-.71-.29C.11 10.52 0 10.26 0 10c0-.26.11-.52.29-.71.37-.37 1.05-.37 1.42 0 .18.19.29.45.29.71 0 .26-.11.52-.29.71-.19.18-.45.29-.71.29zm53.13-1c0-.55.45-1 1-1s1 .45 1 1-.45 1-1 1-1-.45-1-1zm-3.86 0c0-.55.44-1 1-1 .55 0 1 .45 1 1s-.45 1-1 1c-.56 0-1-.45-1-1zm-3.87 0c0-.55.45-1 1-1s1 .45 1 1-.45 1-1 1-1-.45-1-1zm-3.87 0c0-.55.45-1 1-1s1 .45 1 1-.45 1-1 1-1-.45-1-1zm-3.86 0c0-.55.44-1 1-1 .55 0 1 .45 1 1s-.45 1-1 1c-.56 0-1-.45-1-1zm-3.87 0c0-.55.45-1 1-1s1 .45 1 1-.45 1-1 1-1-.45-1-1zm-3.87 0c0-.55.45-1 1-1s1 .45 1 1-.45 1-1 1-1-.45-1-1zm-3.86 0a.994.994 0 1 1 1.99 0 .994.994 0 1 1-1.99 0zm-3.87 0c0-.55.45-1 1-1s1 .45 1 1-.45 1-1 1-1-.45-1-1zm-3.87 0c0-.55.45-1 1-1s1 .45 1 1-.45 1-1 1-1-.45-1-1zm-3.86 0c0-.55.44-1 1-1 .55 0 1 .45 1 1s-.45 1-1 1c-.56 0-1-.45-1-1zm-3.87 0c0-.55.45-1 1-1s1 .45 1 1-.45 1-1 1-1-.45-1-1zm-3.87 0c0-.55.45-1 1-1s1 .45 1 1-.45 1-1 1-1-.45-1-1zm-3.86 0c0-.55.44-1 1-1 .55 0 1 .45 1 1s-.45 1-1 1c-.56 0-1-.45-1-1zM59 11c-.26 0-.52-.11-.71-.29-.18-.19-.29-.45-.29-.71 0-.26.11-.52.29-.71.37-.37 1.05-.37 1.42 0 .19.19.29.45.29.71 0 .26-.1.52-.29.71-.19.18-.45.29-.71.29zm-1 35c0-.55.45-1 1-1s1 .45 1 1-.45 1-1 1-1-.45-1-1zm0-4c0-.55.45-1 1-1s1 .45 1 1-.45 1-1 1-1-.45-1-1zm0-4c0-.55.45-1 1-1s1 .45 1 1-.45 1-1 1-1-.45-1-1zm0-4c0-.55.45-1 1-1s1 .45 1 1-.45 1-1 1-1-.45-1-1zm0-4c0-.55.45-1 1-1s1 .45 1 1-.45 1-1 1-1-.45-1-1zm0-4c0-.55.45-1 1-1s1 .45 1 1-.45 1-1 1-1-.45-1-1zm0-4c0-.55.45-1 1-1s1 .45 1 1-.45 1-1 1-1-.45-1-1zm0-4c0-.55.45-1 1-1s1 .45 1 1-.45 1-1 1-1-.45-1-1zm0-4c0-.55.45-1 1-1s1 .45 1 1-.45 1-1 1-1-.45-1-1zm1 37c-.27 0-.52-.11-.71-.29-.18-.19-.29-.45-.29-.71 0-.26.11-.52.29-.71.37-.37 1.04-.37 1.42 0 .19.19.29.45.29.71 0 .26-.1.52-.29.71-.19.18-.45.29-.71.29zm-4.87-1c0-.55.45-1 1-1 .56 0 1 .45 1 1s-.44 1-1 1c-.55 0-1-.45-1-1zm-3.86 0c0-.55.44-1 1-1 .55 0 1 .45 1 1s-.45 1-1 1c-.56 0-1-.45-1-1zm-3.87 0c0-.55.45-1 1-1s1 .45 1 1-.45 1-1 1-1-.45-1-1zm-3.87 0c0-.55.45-1 1-1s1 .45 1 1-.45 1-1 1-1-.45-1-1zm-3.86 0c0-.55.44-1 1-1 .55 0 1 .45 1 1s-.45 1-1 1c-.56 0-1-.45-1-1zm-3.87 0c0-.55.45-1 1-1s1 .45 1 1-.45 1-1 1-1-.45-1-1zm-3.86 0a.994.994 0 1 1 1.99 0 .994.994 0 1 1-1.99 0zm-3.87 0c0-.55.44-1 1-1 .55 0 1 .45 1 1s-.45 1-1 1c-.56 0-1-.45-1-1zm-3.87 0c0-.55.45-1 1-1s1 .45 1 1-.45 1-1 1-1-.45-1-1zm-3.87 0c0-.55.45-1 1-1 .56 0 1 .45 1 1s-.44 1-1 1c-.55 0-1-.45-1-1zm-3.86 0c0-.55.44-1 1-1 .55 0 1 .45 1 1s-.45 1-1 1c-.56 0-1-.45-1-1zm-3.87 0c0-.55.45-1 1-1s1 .45 1 1-.45 1-1 1-1-.45-1-1zm-3.87 0c0-.55.45-1 1-1s1 .45 1 1-.45 1-1 1-1-.45-1-1zm-3.86 0c0-.55.44-1 1-1 .55 0 1 .45 1 1s-.45 1-1 1c-.56 0-1-.45-1-1z" fill="#556080"/><g fill="#48A0DC"><path d="M20 10h19v40H20z"/><path d="M40 51H19V9h21v42zm-19-2h17V11H21v38z"/></g></svg>