<svg xmlns="http://www.w3.org/2000/svg" viewBox="0 0 60 60"><g fill="#556080"><path d="M1 51c-.26 0-.52-.11-.71-.29C.11 50.52 0 50.26 0 50c0-.26.11-.52.29-.71.38-.37 1.05-.37 1.42 0 .18.19.29.45.29.71 0 .26-.11.52-.29.71-.19.18-.44.29-.71.29zM0 46c0-.55.45-1 1-1s1 .45 1 1-.45 1-1 1-1-.45-1-1zm0-4c0-.55.45-1 1-1s1 .45 1 1-.45 1-1 1-1-.45-1-1zm0-4c0-.55.45-1 1-1s1 .45 1 1-.45 1-1 1-1-.45-1-1zm0-4c0-.55.45-1 1-1s1 .45 1 1-.45 1-1 1-1-.45-1-1zm0-4c0-.55.45-1 1-1s1 .45 1 1-.45 1-1 1-1-.45-1-1zm0-4c0-.55.45-1 1-1s1 .45 1 1-.45 1-1 1-1-.45-1-1zm0-4c0-.55.45-1 1-1s1 .45 1 1-.45 1-1 1-1-.45-1-1zm0-4c0-.55.45-1 1-1s1 .45 1 1-.45 1-1 1-1-.45-1-1zm0-4c0-.55.45-1 1-1s1 .45 1 1-.45 1-1 1-1-.45-1-1zM1 11c-.26 0-.52-.11-.71-.29C.11 10.52 0 10.26 0 10c0-.26.11-.52.29-.71.38-.37 1.05-.37 1.42 0 .18.19.29.45.29.71 0 .26-.11.52-.29.71-.19.18-.44.29-.71.29zM54.13 10c0-.55.45-1 1-1 .56 0 1 .45 1 1s-.44 1-1 1c-.55 0-1-.45-1-1zm-3.86 0c0-.55.44-1 1-1 .55 0 1 .45 1 1s-.45 1-1 1c-.56 0-1-.45-1-1zm-3.87 0c0-.55.45-1 1-1s1 .45 1 1-.45 1-1 1-1-.45-1-1zm-3.87 0c0-.55.45-1 1-1 .56 0 1 .45 1 1s-.44 1-1 1c-.55 0-1-.45-1-1zm-3.86 0c0-.55.44-1 1-1 .55 0 1 .45 1 1s-.45 1-1 1c-.56 0-1-.45-1-1zm-3.87 0c0-.55.45-1 1-1s1 .45 1 1-.45 1-1 1-1-.45-1-1zm-3.87 0c0-.55.45-1 1-1 .56 0 1 .45 1 1s-.44 1-1 1c-.55 0-1-.45-1-1zm-3.86 0c0-.55.44-1 1-1 .55 0 1 .45 1 1s-.45 1-1 1c-.56 0-1-.45-1-1zm-3.87 0c0-.55.45-1 1-1s1 .45 1 1-.45 1-1 1-1-.45-1-1zm-3.87 0c0-.55.45-1 1-1 .56 0 1 .45 1 1s-.44 1-1 1c-.55 0-1-.45-1-1zm-3.86 0c0-.55.44-1 1-1 .55 0 1 .45 1 1s-.45 1-1 1c-.56 0-1-.45-1-1zm-3.87 0c0-.55.45-1 1-1s1 .45 1 1-.45 1-1 1-1-.45-1-1zm-3.87 0c0-.55.45-1 1-1 .56 0 1 .45 1 1s-.44 1-1 1c-.55 0-1-.45-1-1zm-3.86 0c0-.55.44-1 1-1 .55 0 1 .45 1 1s-.45 1-1 1c-.56 0-1-.45-1-1zM59 11c-.26 0-.52-.11-.71-.29-.18-.19-.29-.45-.29-.71 0-.26.11-.52.29-.71.37-.37 1.05-.37 1.42 0 .18.19.29.45.29.71 0 .26-.11.52-.29.71-.19.18-.45.29-.71.29zM58 46c0-.55.45-1 1-1s1 .45 1 1-.45 1-1 1-1-.45-1-1zm0-4c0-.55.45-1 1-1s1 .45 1 1-.45 1-1 1-1-.45-1-1zm0-4c0-.55.45-1 1-1s1 .45 1 1-.45 1-1 1-1-.45-1-1zm0-4c0-.55.45-1 1-1s1 .45 1 1-.45 1-1 1-1-.45-1-1zm0-4c0-.55.45-1 1-1s1 .45 1 1-.45 1-1 1-1-.45-1-1zm0-4c0-.55.45-1 1-1s1 .45 1 1-.45 1-1 1-1-.45-1-1zm0-4c0-.55.45-1 1-1s1 .45 1 1-.45 1-1 1-1-.45-1-1zm0-4c0-.55.45-1 1-1s1 .45 1 1-.45 1-1 1-1-.45-1-1zm0-4c0-.55.45-1 1-1s1 .45 1 1-.45 1-1 1-1-.45-1-1zM59 51c-.26 0-.52-.11-.71-.29-.18-.19-.29-.44-.29-.71 0-.26.11-.52.29-.71.37-.37 1.05-.37 1.42 0 .18.19.29.45.29.71 0 .26-.11.52-.29.71-.19.18-.45.29-.71.29zM54.13 50c0-.55.45-1 1-1 .56 0 1 .45 1 1s-.44 1-1 1c-.55 0-1-.45-1-1zm-3.86 0c0-.55.44-1 1-1 .55 0 1 .45 1 1s-.45 1-1 1c-.56 0-1-.45-1-1zm-3.87 0c0-.55.45-1 1-1s1 .45 1 1-.45 1-1 1-1-.45-1-1zm-3.87 0c0-.55.45-1 1-1 .56 0 1 .45 1 1s-.44 1-1 1c-.55 0-1-.45-1-1zm-3.86 0c0-.55.44-1 1-1 .55 0 1 .45 1 1s-.45 1-1 1c-.56 0-1-.45-1-1zm-3.87 0c0-.55.45-1 1-1s1 .45 1 1-.45 1-1 1-1-.45-1-1zm-3.87 0c0-.55.45-1 1-1 .56 0 1 .45 1 1s-.44 1-1 1c-.55 0-1-.45-1-1zm-3.86 0c0-.55.44-1 1-1 .55 0 1 .45 1 1s-.45 1-1 1c-.56 0-1-.45-1-1zm-3.87 0c0-.55.45-1 1-1s1 .45 1 1-.45 1-1 1-1-.45-1-1zm-3.87 0c0-.55.45-1 1-1 .56 0 1 .45 1 1s-.44 1-1 1c-.55 0-1-.45-1-1zm-3.86 0c0-.55.44-1 1-1 .55 0 1 .45 1 1s-.45 1-1 1c-.56 0-1-.45-1-1zm-3.87 0c0-.55.45-1 1-1s1 .45 1 1-.45 1-1 1-1-.45-1-1zm-3.87 0c0-.55.45-1 1-1 .56 0 1 .45 1 1s-.44 1-1 1c-.55 0-1-.45-1-1zm-3.86 0c0-.55.44-1 1-1 .55 0 1 .45 1 1s-.45 1-1 1c-.56 0-1-.45-1-1z"/></g><g fill="#48A0DC"><path d="M1 10h19v40H1z"/><path d="M21 51H0V9h21v42zM2 49h17V11H2v38z"/></g></svg>